<?xml version="1.0" encoding="UTF-8" standalone="no"?>
<!DOCTYPE svg PUBLIC "-//W3C//DTD SVG 1.1//EN"
 "http://www.w3.org/Graphics/SVG/1.1/DTD/svg11.dtd">
<!-- Generated by graphviz version 2.40.1 (20161225.0304)
 -->
<!-- Title: webthree Pages: 1 -->
<svg width="1142pt" height="714pt"
 viewBox="0.00 0.00 1142.12 714.00" xmlns="http://www.w3.org/2000/svg" xmlns:xlink="http://www.w3.org/1999/xlink">
<g id="graph0" class="graph" transform="scale(1 1) rotate(0) translate(4 710)">
<title>webthree</title>
<polygon fill="#ffffff" stroke="transparent" points="-4,4 -4,-710 1138.1182,-710 1138.1182,4 -4,4"/>
<text text-anchor="middle" x="567.0591" y="-6.8" font-family="Times,serif" font-size="14.00" fill="#000000">Ethereum C++ dependencies</text>
<!-- buildinfo -->
<g id="node1" class="node">
<title>buildinfo</title>
<ellipse fill="#00bfff" stroke="#000000" cx="584.6279" cy="-184" rx="40.3393" ry="18"/>
<text text-anchor="middle" x="584.6279" y="-181" font-family="Courier,monospace" font-size="10.00" fill="#000000">buildinfo</text>
</g>
<!-- json_spirit -->
<g id="node2" class="node">
<title>json_spirit</title>
<ellipse fill="none" stroke="#ff0000" cx="478.6279" cy="-184" rx="47.1983" ry="18"/>
<text text-anchor="middle" x="478.6279" y="-181" font-family="Courier,monospace" font-size="10.00" fill="#000000">json_spirit</text>
</g>
<!-- scrypt -->
<g id="node3" class="node">
<title>scrypt</title>
<ellipse fill="none" stroke="#ff0000" cx="296.6279" cy="-184" rx="30.0512" ry="18"/>
<text text-anchor="middle" x="296.6279" y="-181" font-family="Courier,monospace" font-size="10.00" fill="#000000">scrypt</text>
</g>
<!-- secp256k1 -->
<g id="node4" class="node">
<title>secp256k1</title>
<ellipse fill="none" stroke="#ff0000" cx="191.6279" cy="-184" rx="40.3393" ry="18"/>
<text text-anchor="middle" x="191.6279" y="-181" font-family="Courier,monospace" font-size="10.00" fill="#000000">secp256k1</text>
</g>
<!-- gmp -->
<g id="node5" class="node">
<title>gmp</title>
<ellipse fill="none" stroke="#000000" cx="114.6279" cy="-112" rx="27" ry="18"/>
<text text-anchor="middle" x="114.6279" y="-109" font-family="Courier,monospace" font-size="10.00" fill="#000000">gmp</text>
</g>
<!-- secp256k1&#45;&gt;gmp -->
<g id="edge1" class="edge">
<title>secp256k1&#45;&gt;gmp</title>
<path fill="none" stroke="#000000" d="M174.1554,-167.6621C163.4841,-157.6837 149.7036,-144.7981 138.0895,-133.9381"/>
<polygon fill="#000000" stroke="#000000" points="140.1546,-131.0774 130.4599,-126.8039 135.3736,-136.1904 140.1546,-131.0774"/>
</g>
<!-- testeth -->
<g id="node6" class="node">
<title>testeth</title>
<polygon fill="#7fff00" stroke="#000000" stroke-width="2" points="450.6348,-562 392.6211,-562 392.6211,-526 450.6348,-526 450.6348,-562"/>
<text text-anchor="middle" x="421.6279" y="-541" font-family="Courier,monospace" font-size="10.00" fill="#000000">testeth</text>
</g>
<!-- ethashseal -->
<g id="node7" class="node">
<title>ethashseal</title>
<ellipse fill="#00bfff" stroke="#000000" cx="513.6279" cy="-472" rx="43.7688" ry="18"/>
<text text-anchor="middle" x="513.6279" y="-469" font-family="Courier,monospace" font-size="10.00" fill="#000000">ethashseal</text>
</g>
<!-- testeth&#45;&gt;ethashseal -->
<g id="edge2" class="edge">
<title>testeth&#45;&gt;ethashseal</title>
<path fill="none" stroke="#000000" d="M444.8434,-525.8314C457.0699,-516.2628 472.1694,-504.4458 485.1037,-494.3233"/>
<polygon fill="#000000" stroke="#000000" points="487.5207,-496.8762 493.2387,-487.9568 483.2065,-491.3636 487.5207,-496.8762"/>
</g>
<!-- boost::unit_test_framework -->
<g id="node8" class="node">
<title>boost::unit_test_framework</title>
<ellipse fill="none" stroke="#000000" cx="352.6279" cy="-472" rx="99.1381" ry="18"/>
<text text-anchor="middle" x="352.6279" y="-469" font-family="Courier,monospace" font-size="10.00" fill="#000000">boost::unit_test_framework</text>
</g>
<!-- testeth&#45;&gt;boost::unit_test_framework -->
<g id="edge3" class="edge">
<title>testeth&#45;&gt;boost::unit_test_framework</title>
<path fill="none" stroke="#000000" d="M404.2163,-525.8314C395.8998,-517.1533 385.8109,-506.6257 376.7685,-497.1902"/>
<polygon fill="#000000" stroke="#000000" points="379.241,-494.7116 369.7949,-489.9134 374.1871,-499.555 379.241,-494.7116"/>
</g>
<!-- ethereum -->
<g id="node31" class="node">
<title>ethereum</title>
<ellipse fill="#00bfff" stroke="#000000" cx="412.6279" cy="-400" rx="36.9099" ry="18"/>
<text text-anchor="middle" x="412.6279" y="-397" font-family="Courier,monospace" font-size="10.00" fill="#000000">ethereum</text>
</g>
<!-- ethashseal&#45;&gt;ethereum -->
<g id="edge40" class="edge">
<title>ethashseal&#45;&gt;ethereum</title>
<path fill="none" stroke="#000000" d="M491.7124,-456.3771C477.2226,-446.0477 458.0513,-432.381 442.2135,-421.0907"/>
<polygon fill="#000000" stroke="#000000" points="443.983,-418.0539 433.8085,-415.099 439.9196,-423.7538 443.983,-418.0539"/>
</g>
<!-- ethash&#45;cl -->
<g id="node39" class="node">
<title>ethash&#45;cl</title>
<ellipse fill="none" stroke="#000000" cx="619.6279" cy="-400" rx="40.3393" ry="18"/>
<text text-anchor="middle" x="619.6279" y="-397" font-family="Courier,monospace" font-size="10.00" fill="#000000">ethash&#45;cl</text>
</g>
<!-- ethashseal&#45;&gt;ethash&#45;cl -->
<g id="edge41" class="edge">
<title>ethashseal&#45;&gt;ethash&#45;cl</title>
<path fill="none" stroke="#000000" stroke-dasharray="1,5" d="M536.3676,-456.5542C551.7012,-446.1389 572.1167,-432.2717 588.8941,-420.8758"/>
<polygon fill="#000000" stroke="#000000" points="590.9841,-423.6873 597.2897,-415.1731 587.0509,-417.8967 590.9841,-423.6873"/>
</g>
<!-- Cpuid -->
<g id="node40" class="node">
<title>Cpuid</title>
<ellipse fill="none" stroke="#000000" cx="513.6279" cy="-400" rx="27" ry="18"/>
<text text-anchor="middle" x="513.6279" y="-397" font-family="Courier,monospace" font-size="10.00" fill="#000000">Cpuid</text>
</g>
<!-- ethashseal&#45;&gt;Cpuid -->
<g id="edge42" class="edge">
<title>ethashseal&#45;&gt;Cpuid</title>
<path fill="none" stroke="#000000" stroke-dasharray="1,5" d="M513.6279,-453.8314C513.6279,-446.131 513.6279,-436.9743 513.6279,-428.4166"/>
<polygon fill="#000000" stroke="#000000" points="517.128,-428.4132 513.6279,-418.4133 510.128,-428.4133 517.128,-428.4132"/>
</g>
<!-- testweb3 -->
<g id="node9" class="node">
<title>testweb3</title>
<polygon fill="#7fff00" stroke="#000000" stroke-width="2" points="384.6357,-706 320.6201,-706 320.6201,-670 384.6357,-670 384.6357,-706"/>
<text text-anchor="middle" x="352.6279" y="-685" font-family="Courier,monospace" font-size="10.00" fill="#000000">testweb3</text>
</g>
<!-- testweb3&#45;&gt;boost::unit_test_framework -->
<g id="edge5" class="edge">
<title>testweb3&#45;&gt;boost::unit_test_framework</title>
<path fill="none" stroke="#000000" d="M352.6279,-669.9555C352.6279,-632.3938 352.6279,-545.5541 352.6279,-500.4103"/>
<polygon fill="#000000" stroke="#000000" points="356.128,-500.145 352.6279,-490.1451 349.128,-500.1451 356.128,-500.145"/>
</g>
<!-- web3jsonrpc -->
<g id="node10" class="node">
<title>web3jsonrpc</title>
<ellipse fill="#00bfff" stroke="#000000" cx="276.6279" cy="-616" rx="47.1983" ry="18"/>
<text text-anchor="middle" x="276.6279" y="-613" font-family="Courier,monospace" font-size="10.00" fill="#000000">web3jsonrpc</text>
</g>
<!-- testweb3&#45;&gt;web3jsonrpc -->
<g id="edge4" class="edge">
<title>testweb3&#45;&gt;web3jsonrpc</title>
<path fill="none" stroke="#000000" d="M333.4499,-669.8314C323.9187,-660.8018 312.2739,-649.7699 302.0132,-640.0492"/>
<polygon fill="#000000" stroke="#000000" points="304.1612,-637.2629 294.4946,-632.9263 299.347,-642.3446 304.1612,-637.2629"/>
</g>
<!-- webthree -->
<g id="node29" class="node">
<title>webthree</title>
<ellipse fill="#00bfff" stroke="#000000" cx="276.6279" cy="-544" rx="36.9099" ry="18"/>
<text text-anchor="middle" x="276.6279" y="-541" font-family="Courier,monospace" font-size="10.00" fill="#000000">webthree</text>
</g>
<!-- web3jsonrpc&#45;&gt;webthree -->
<g id="edge25" class="edge">
<title>web3jsonrpc&#45;&gt;webthree</title>
<path fill="none" stroke="#000000" d="M276.6279,-597.8314C276.6279,-590.131 276.6279,-580.9743 276.6279,-572.4166"/>
<polygon fill="#000000" stroke="#000000" points="280.128,-572.4132 276.6279,-562.4133 273.128,-572.4133 280.128,-572.4132"/>
</g>
<!-- testweb3core -->
<g id="node11" class="node">
<title>testweb3core</title>
<polygon fill="#7fff00" stroke="#000000" stroke-width="2" points="180.6396,-562 92.6162,-562 92.6162,-526 180.6396,-526 180.6396,-562"/>
<text text-anchor="middle" x="136.6279" y="-541" font-family="Courier,monospace" font-size="10.00" fill="#000000">testweb3core</text>
</g>
<!-- testweb3core&#45;&gt;boost::unit_test_framework -->
<g id="edge8" class="edge">
<title>testweb3core&#45;&gt;boost::unit_test_framework</title>
<path fill="none" stroke="#000000" d="M180.86,-529.256C213.9157,-518.2374 259.3885,-503.0798 295.2432,-491.1282"/>
<polygon fill="#000000" stroke="#000000" points="296.7027,-494.3311 305.0828,-487.8484 294.4891,-487.6903 296.7027,-494.3311"/>
</g>
<!-- boost::regex -->
<g id="node12" class="node">
<title>boost::regex</title>
<ellipse fill="none" stroke="#000000" cx="100.6279" cy="-328" rx="50.6279" ry="18"/>
<text text-anchor="middle" x="100.6279" y="-325" font-family="Courier,monospace" font-size="10.00" fill="#000000">boost::regex</text>
</g>
<!-- testweb3core&#45;&gt;boost::regex -->
<g id="edge6" class="edge">
<title>testweb3core&#45;&gt;boost::regex</title>
<path fill="none" stroke="#000000" d="M92.4936,-537.8064C63.6054,-531.2119 27.9345,-517.6766 9.6279,-490 -21.8905,-442.3491 33.7548,-383.0945 71.0461,-351.0978"/>
<polygon fill="#000000" stroke="#000000" points="73.7214,-353.4231 79.1465,-344.3226 69.2304,-348.0536 73.7214,-353.4231"/>
</g>
<!-- p2p -->
<g id="node13" class="node">
<title>p2p</title>
<ellipse fill="#00bfff" stroke="#000000" cx="196.6279" cy="-328" rx="27" ry="18"/>
<text text-anchor="middle" x="196.6279" y="-325" font-family="Courier,monospace" font-size="10.00" fill="#000000">p2p</text>
</g>
<!-- testweb3core&#45;&gt;p2p -->
<g id="edge7" class="edge">
<title>testweb3core&#45;&gt;p2p</title>
<path fill="none" stroke="#000000" d="M144.443,-525.724C148.6928,-515.3652 153.8392,-502.0948 157.6279,-490 172.0787,-443.8681 184.2817,-388.9335 191.0138,-356.3458"/>
<polygon fill="#000000" stroke="#000000" points="194.5148,-356.6936 193.0825,-346.196 187.6559,-355.2955 194.5148,-356.6936"/>
</g>
<!-- boost::date_time -->
<g id="node14" class="node">
<title>boost::date_time</title>
<ellipse fill="none" stroke="#000000" cx="83.6279" cy="-472" rx="64.845" ry="18"/>
<text text-anchor="middle" x="83.6279" y="-469" font-family="Courier,monospace" font-size="10.00" fill="#000000">boost::date_time</text>
</g>
<!-- testweb3core&#45;&gt;boost::date_time -->
<g id="edge9" class="edge">
<title>testweb3core&#45;&gt;boost::date_time</title>
<path fill="none" stroke="#000000" d="M123.2538,-525.8314C117.0555,-517.411 109.5755,-507.2495 102.7917,-498.0338"/>
<polygon fill="#000000" stroke="#000000" points="105.5611,-495.8919 96.8142,-489.9134 99.9237,-500.0417 105.5611,-495.8919"/>
</g>
<!-- devcrypto -->
<g id="node16" class="node">
<title>devcrypto</title>
<ellipse fill="#00bfff" stroke="#000000" cx="296.6279" cy="-256" rx="40.3393" ry="18"/>
<text text-anchor="middle" x="296.6279" y="-253" font-family="Courier,monospace" font-size="10.00" fill="#000000">devcrypto</text>
</g>
<!-- p2p&#45;&gt;devcrypto -->
<g id="edge36" class="edge">
<title>p2p&#45;&gt;devcrypto</title>
<path fill="none" stroke="#000000" d="M215.4372,-314.4574C229.8909,-304.0507 250.1344,-289.4753 266.7915,-277.4822"/>
<polygon fill="#000000" stroke="#000000" points="269.0552,-280.1652 275.1255,-271.4817 264.9651,-274.4844 269.0552,-280.1652"/>
</g>
<!-- Miniupnpc -->
<g id="node36" class="node">
<title>Miniupnpc</title>
<ellipse fill="none" stroke="#000000" cx="196.6279" cy="-256" rx="40.3393" ry="18"/>
<text text-anchor="middle" x="196.6279" y="-253" font-family="Courier,monospace" font-size="10.00" fill="#000000">Miniupnpc</text>
</g>
<!-- p2p&#45;&gt;Miniupnpc -->
<g id="edge37" class="edge">
<title>p2p&#45;&gt;Miniupnpc</title>
<path fill="none" stroke="#000000" stroke-dasharray="1,5" d="M196.6279,-309.8314C196.6279,-302.131 196.6279,-292.9743 196.6279,-284.4166"/>
<polygon fill="#000000" stroke="#000000" points="200.128,-284.4132 196.6279,-274.4133 193.128,-284.4133 200.128,-284.4132"/>
</g>
<!-- bench -->
<g id="node15" class="node">
<title>bench</title>
<polygon fill="#7fff00" stroke="#000000" stroke-width="2" points="367.6279,-346 313.6279,-346 313.6279,-310 367.6279,-310 367.6279,-346"/>
<text text-anchor="middle" x="340.6279" y="-325" font-family="Courier,monospace" font-size="10.00" fill="#000000">bench</text>
</g>
<!-- bench&#45;&gt;devcrypto -->
<g id="edge10" class="edge">
<title>bench&#45;&gt;devcrypto</title>
<path fill="none" stroke="#000000" d="M329.5249,-309.8314C324.4078,-301.4579 318.2384,-291.3626 312.6316,-282.1878"/>
<polygon fill="#000000" stroke="#000000" points="315.4731,-280.1255 307.2721,-273.4177 309.5001,-283.7756 315.4731,-280.1255"/>
</g>
<!-- devcrypto&#45;&gt;json_spirit -->
<g id="edge11" class="edge">
<title>devcrypto&#45;&gt;json_spirit</title>
<path fill="none" stroke="#000000" d="M327.0906,-243.9488C356.9316,-232.1436 402.6674,-214.0503 436.0894,-200.8284"/>
<polygon fill="#000000" stroke="#000000" points="437.5886,-203.9993 445.5999,-197.066 435.0135,-197.4902 437.5886,-203.9993"/>
</g>
<!-- devcrypto&#45;&gt;scrypt -->
<g id="edge12" class="edge">
<title>devcrypto&#45;&gt;scrypt</title>
<path fill="none" stroke="#000000" d="M296.6279,-237.8314C296.6279,-230.131 296.6279,-220.9743 296.6279,-212.4166"/>
<polygon fill="#000000" stroke="#000000" points="300.128,-212.4132 296.6279,-202.4133 293.128,-212.4133 300.128,-212.4132"/>
</g>
<!-- devcrypto&#45;&gt;secp256k1 -->
<g id="edge13" class="edge">
<title>devcrypto&#45;&gt;secp256k1</title>
<path fill="none" stroke="#000000" d="M274.3601,-240.7307C259.1863,-230.3257 238.9012,-216.4159 222.2151,-204.9741"/>
<polygon fill="#000000" stroke="#000000" points="224.0903,-202.0161 213.8636,-199.2473 220.1316,-207.7892 224.0903,-202.0161"/>
</g>
<!-- devcore -->
<g id="node17" class="node">
<title>devcore</title>
<ellipse fill="#00bfff" stroke="#000000" cx="379.6279" cy="-184" rx="33.4805" ry="18"/>
<text text-anchor="middle" x="379.6279" y="-181" font-family="Courier,monospace" font-size="10.00" fill="#000000">devcore</text>
</g>
<!-- devcrypto&#45;&gt;devcore -->
<g id="edge14" class="edge">
<title>devcrypto&#45;&gt;devcore</title>
<path fill="none" stroke="#000000" d="M315.4619,-239.6621C326.84,-229.7919 341.4971,-217.0773 353.9299,-206.2923"/>
<polygon fill="#000000" stroke="#000000" points="356.4615,-208.7296 361.7219,-199.5329 351.8745,-203.4418 356.4615,-208.7296"/>
</g>
<!-- boost::filesystem -->
<g id="node22" class="node">
<title>boost::filesystem</title>
<ellipse fill="none" stroke="#000000" cx="439.6279" cy="-112" rx="68.2741" ry="18"/>
<text text-anchor="middle" x="439.6279" y="-109" font-family="Courier,monospace" font-size="10.00" fill="#000000">boost::filesystem</text>
</g>
<!-- devcore&#45;&gt;boost::filesystem -->
<g id="edge18" class="edge">
<title>devcore&#45;&gt;boost::filesystem</title>
<path fill="none" stroke="#000000" d="M393.5439,-167.3008C400.9003,-158.4731 410.0887,-147.4471 418.3211,-137.5682"/>
<polygon fill="#000000" stroke="#000000" points="421.2372,-139.5361 424.9503,-129.6132 415.8596,-135.0548 421.2372,-139.5361"/>
</g>
<!-- boost::random -->
<g id="node23" class="node">
<title>boost::random</title>
<ellipse fill="none" stroke="#000000" cx="579.6279" cy="-112" rx="54.0574" ry="18"/>
<text text-anchor="middle" x="579.6279" y="-109" font-family="Courier,monospace" font-size="10.00" fill="#000000">boost::random</text>
</g>
<!-- devcore&#45;&gt;boost::random -->
<g id="edge19" class="edge">
<title>devcore&#45;&gt;boost::random</title>
<path fill="none" stroke="#000000" d="M405.8977,-172.6844C411.3987,-170.4048 417.1825,-168.0737 422.6279,-166 458.6015,-152.3008 499.7681,-138.199 530.9199,-127.8428"/>
<polygon fill="#000000" stroke="#000000" points="532.2697,-131.0828 540.663,-124.6173 530.0696,-124.4375 532.2697,-131.0828"/>
</g>
<!-- boost::system -->
<g id="node24" class="node">
<title>boost::system</title>
<ellipse fill="none" stroke="#000000" cx="706.6279" cy="-112" rx="54.0574" ry="18"/>
<text text-anchor="middle" x="706.6279" y="-109" font-family="Courier,monospace" font-size="10.00" fill="#000000">boost::system</text>
</g>
<!-- devcore&#45;&gt;boost::system -->
<g id="edge20" class="edge">
<title>devcore&#45;&gt;boost::system</title>
<path fill="none" stroke="#000000" d="M405.1974,-172.1462C410.8497,-169.8517 416.8712,-167.6511 422.6279,-166 517.8662,-138.6839 545.8986,-151.4461 642.6279,-130 647.0579,-129.0178 651.6365,-127.9128 656.2137,-126.7459"/>
<polygon fill="#000000" stroke="#000000" points="657.3984,-130.0531 666.1734,-124.116 655.6112,-123.2851 657.3984,-130.0531"/>
</g>
<!-- boost::thread -->
<g id="node25" class="node">
<title>boost::thread</title>
<ellipse fill="none" stroke="#000000" cx="213.6279" cy="-112" rx="54.0574" ry="18"/>
<text text-anchor="middle" x="213.6279" y="-109" font-family="Courier,monospace" font-size="10.00" fill="#000000">boost::thread</text>
</g>
<!-- devcore&#45;&gt;boost::thread -->
<g id="edge21" class="edge">
<title>devcore&#45;&gt;boost::thread</title>
<path fill="none" stroke="#000000" d="M353.3247,-172.5914C327.1441,-161.2359 286.5469,-143.6275 255.8508,-130.3135"/>
<polygon fill="#000000" stroke="#000000" points="257.2362,-127.0994 246.6692,-126.3312 254.4507,-133.5214 257.2362,-127.0994"/>
</g>
<!-- LevelDB -->
<g id="node26" class="node">
<title>LevelDB</title>
<ellipse fill="none" stroke="#000000" cx="319.6279" cy="-112" rx="33.4805" ry="18"/>
<text text-anchor="middle" x="319.6279" y="-109" font-family="Courier,monospace" font-size="10.00" fill="#000000">LevelDB</text>
</g>
<!-- devcore&#45;&gt;LevelDB -->
<g id="edge22" class="edge">
<title>devcore&#45;&gt;LevelDB</title>
<path fill="none" stroke="#000000" d="M365.7119,-167.3008C358.0634,-158.1226 348.4346,-146.568 339.9588,-136.3971"/>
<polygon fill="#000000" stroke="#000000" points="342.5591,-134.0502 333.4685,-128.6087 337.1816,-138.5316 342.5591,-134.0502"/>
</g>
<!-- curl -->
<g id="node18" class="node">
<title>curl</title>
<ellipse fill="none" stroke="#000000" cx="733.6279" cy="-616" rx="27" ry="18"/>
<text text-anchor="middle" x="733.6279" y="-613" font-family="Courier,monospace" font-size="10.00" fill="#000000">curl</text>
</g>
<!-- ssh2 -->
<g id="node19" class="node">
<title>ssh2</title>
<ellipse fill="none" stroke="#000000" cx="655.6279" cy="-544" rx="27" ry="18"/>
<text text-anchor="middle" x="655.6279" y="-541" font-family="Courier,monospace" font-size="10.00" fill="#000000">ssh2</text>
</g>
<!-- curl&#45;&gt;ssh2 -->
<g id="edge15" class="edge">
<title>curl&#45;&gt;ssh2</title>
<path fill="none" stroke="#000000" stroke-dasharray="1,5" d="M717.4663,-601.0816C706.3065,-590.7802 691.2945,-576.923 678.8564,-565.4417"/>
<polygon fill="#000000" stroke="#000000" points="681.224,-562.864 671.502,-558.653 676.4761,-568.0076 681.224,-562.864"/>
</g>
<!-- openssl -->
<g id="node20" class="node">
<title>openssl</title>
<ellipse fill="none" stroke="#000000" cx="733.6279" cy="-544" rx="33.4805" ry="18"/>
<text text-anchor="middle" x="733.6279" y="-541" font-family="Courier,monospace" font-size="10.00" fill="#000000">openssl</text>
</g>
<!-- curl&#45;&gt;openssl -->
<g id="edge16" class="edge">
<title>curl&#45;&gt;openssl</title>
<path fill="none" stroke="#000000" stroke-dasharray="1,5" d="M733.6279,-597.8314C733.6279,-590.131 733.6279,-580.9743 733.6279,-572.4166"/>
<polygon fill="#000000" stroke="#000000" points="737.128,-572.4132 733.6279,-562.4133 730.128,-572.4133 737.128,-572.4132"/>
</g>
<!-- zlib -->
<g id="node21" class="node">
<title>zlib</title>
<ellipse fill="none" stroke="#000000" cx="811.6279" cy="-544" rx="27" ry="18"/>
<text text-anchor="middle" x="811.6279" y="-541" font-family="Courier,monospace" font-size="10.00" fill="#000000">zlib</text>
</g>
<!-- curl&#45;&gt;zlib -->
<g id="edge17" class="edge">
<title>curl&#45;&gt;zlib</title>
<path fill="none" stroke="#000000" stroke-dasharray="1,5" d="M749.7896,-601.0816C760.9494,-590.7802 775.9613,-576.923 788.3994,-565.4417"/>
<polygon fill="#000000" stroke="#000000" points="790.7798,-568.0076 795.7539,-558.653 786.0318,-562.864 790.7798,-568.0076"/>
</g>
<!-- snappy -->
<g id="node27" class="node">
<title>snappy</title>
<ellipse fill="none" stroke="#000000" cx="319.6279" cy="-40" rx="30.0512" ry="18"/>
<text text-anchor="middle" x="319.6279" y="-37" font-family="Courier,monospace" font-size="10.00" fill="#000000">snappy</text>
</g>
<!-- LevelDB&#45;&gt;snappy -->
<g id="edge23" class="edge">
<title>LevelDB&#45;&gt;snappy</title>
<path fill="none" stroke="#000000" stroke-dasharray="1,5" d="M319.6279,-93.8314C319.6279,-86.131 319.6279,-76.9743 319.6279,-68.4166"/>
<polygon fill="#000000" stroke="#000000" points="323.128,-68.4132 319.6279,-58.4133 316.128,-68.4133 323.128,-68.4132"/>
</g>
<!-- eth -->
<g id="node28" class="node">
<title>eth</title>
<polygon fill="#7fff00" stroke="#000000" stroke-width="2" points="302.6279,-706 248.6279,-706 248.6279,-670 302.6279,-670 302.6279,-706"/>
<text text-anchor="middle" x="275.6279" y="-685" font-family="Courier,monospace" font-size="10.00" fill="#000000">eth</text>
</g>
<!-- eth&#45;&gt;web3jsonrpc -->
<g id="edge24" class="edge">
<title>eth&#45;&gt;web3jsonrpc</title>
<path fill="none" stroke="#000000" d="M275.8803,-669.8314C275.9872,-662.131 276.1144,-652.9743 276.2332,-644.4166"/>
<polygon fill="#000000" stroke="#000000" points="279.7329,-644.4609 276.3722,-634.4133 272.7335,-644.3637 279.7329,-644.4609"/>
</g>
<!-- webthree&#45;&gt;ethashseal -->
<g id="edge52" class="edge">
<title>webthree&#45;&gt;ethashseal</title>
<path fill="none" stroke="#000000" d="M308.9933,-534.9456C345.8418,-524.5342 407.7794,-506.7211 460.6279,-490 463.778,-489.0033 467.0262,-487.9539 470.2909,-486.8833"/>
<polygon fill="#000000" stroke="#000000" points="471.6667,-490.1144 480.0529,-483.6396 469.4594,-483.4715 471.6667,-490.1144"/>
</g>
<!-- whisper -->
<g id="node50" class="node">
<title>whisper</title>
<ellipse fill="#00bfff" stroke="#000000" cx="237.6279" cy="-400" rx="33.4805" ry="18"/>
<text text-anchor="middle" x="237.6279" y="-397" font-family="Courier,monospace" font-size="10.00" fill="#000000">whisper</text>
</g>
<!-- webthree&#45;&gt;whisper -->
<g id="edge53" class="edge">
<title>webthree&#45;&gt;whisper</title>
<path fill="none" stroke="#000000" d="M263.7823,-526.9747C256.8338,-516.7996 248.8338,-503.2996 244.6279,-490 238.2978,-469.9831 236.6757,-446.2716 236.5678,-428.213"/>
<polygon fill="#000000" stroke="#000000" points="240.0691,-428.0759 236.6613,-418.0441 233.0694,-428.0115 240.0691,-428.0759"/>
</g>
<!-- ethcore -->
<g id="node30" class="node">
<title>ethcore</title>
<ellipse fill="#00bfff" stroke="#000000" cx="478.6279" cy="-256" rx="33.4805" ry="18"/>
<text text-anchor="middle" x="478.6279" y="-253" font-family="Courier,monospace" font-size="10.00" fill="#000000">ethcore</text>
</g>
<!-- ethcore&#45;&gt;buildinfo -->
<g id="edge26" class="edge">
<title>ethcore&#45;&gt;buildinfo</title>
<path fill="none" stroke="#000000" d="M499.5701,-241.7751C514.9839,-231.3054 536.1922,-216.8998 553.575,-205.0926"/>
<polygon fill="#000000" stroke="#000000" points="555.9599,-207.7037 562.2654,-199.1896 552.0267,-201.9132 555.9599,-207.7037"/>
</g>
<!-- ethcore&#45;&gt;json_spirit -->
<g id="edge27" class="edge">
<title>ethcore&#45;&gt;json_spirit</title>
<path fill="none" stroke="#000000" d="M478.6279,-237.8314C478.6279,-230.131 478.6279,-220.9743 478.6279,-212.4166"/>
<polygon fill="#000000" stroke="#000000" points="482.128,-212.4132 478.6279,-202.4133 475.128,-212.4133 482.128,-212.4132"/>
</g>
<!-- ethcore&#45;&gt;devcore -->
<g id="edge28" class="edge">
<title>ethcore&#45;&gt;devcore</title>
<path fill="none" stroke="#000000" d="M458.5938,-241.4297C443.9673,-230.7923 423.9442,-216.23 407.7209,-204.4313"/>
<polygon fill="#000000" stroke="#000000" points="409.7782,-201.5998 399.6323,-198.5486 405.661,-207.2609 409.7782,-201.5998"/>
</g>
<!-- ethereum&#45;&gt;boost::regex -->
<g id="edge29" class="edge">
<title>ethereum&#45;&gt;boost::regex</title>
<path fill="none" stroke="#000000" d="M377.7737,-393.4516C328.9529,-384.0706 237.553,-365.7467 160.6279,-346 156.7683,-345.0092 152.7843,-343.9333 148.7908,-342.817"/>
<polygon fill="#000000" stroke="#000000" points="149.4866,-339.3755 138.9092,-339.9841 147.5575,-346.1045 149.4866,-339.3755"/>
</g>
<!-- ethereum&#45;&gt;p2p -->
<g id="edge32" class="edge">
<title>ethereum&#45;&gt;p2p</title>
<path fill="none" stroke="#000000" d="M379.5339,-391.9038C342.9799,-382.5415 282.6693,-365.8453 232.6279,-346 230.7767,-345.2658 228.8915,-344.4721 227.0027,-343.641"/>
<polygon fill="#000000" stroke="#000000" points="228.2127,-340.3432 217.6715,-339.279 225.2484,-346.6845 228.2127,-340.3432"/>
</g>
<!-- evm -->
<g id="node32" class="node">
<title>evm</title>
<ellipse fill="#00bfff" stroke="#000000" cx="412.6279" cy="-328" rx="27" ry="18"/>
<text text-anchor="middle" x="412.6279" y="-325" font-family="Courier,monospace" font-size="10.00" fill="#000000">evm</text>
</g>
<!-- ethereum&#45;&gt;evm -->
<g id="edge30" class="edge">
<title>ethereum&#45;&gt;evm</title>
<path fill="none" stroke="#000000" d="M412.6279,-381.8314C412.6279,-374.131 412.6279,-364.9743 412.6279,-356.4166"/>
<polygon fill="#000000" stroke="#000000" points="416.128,-356.4132 412.6279,-346.4133 409.128,-356.4133 416.128,-356.4132"/>
</g>
<!-- evmjit -->
<g id="node33" class="node">
<title>evmjit</title>
<ellipse fill="#ff7f50" stroke="#000000" cx="559.6279" cy="-328" rx="30.0512" ry="18"/>
<text text-anchor="middle" x="559.6279" y="-325" font-family="Courier,monospace" font-size="10.00" fill="#000000">evmjit</text>
</g>
<!-- ethereum&#45;&gt;evmjit -->
<g id="edge31" class="edge">
<title>ethereum&#45;&gt;evmjit</title>
<path fill="none" stroke="#000000" stroke-dasharray="1,5" d="M438.9086,-387.1278C463.4744,-375.0956 500.2443,-357.0859 526.745,-344.1059"/>
<polygon fill="#000000" stroke="#000000" points="528.5611,-347.1137 536.0022,-339.5718 525.482,-340.8273 528.5611,-347.1137"/>
</g>
<!-- evm&#45;&gt;ethcore -->
<g id="edge33" class="edge">
<title>evm&#45;&gt;ethcore</title>
<path fill="none" stroke="#000000" d="M426.9489,-312.3771C435.6741,-302.8587 446.9969,-290.5066 456.8192,-279.7913"/>
<polygon fill="#000000" stroke="#000000" points="459.4704,-282.0787 463.6476,-272.3421 454.3103,-277.3487 459.4704,-282.0787"/>
</g>
<!-- evmcore -->
<g id="node34" class="node">
<title>evmcore</title>
<ellipse fill="#00bfff" stroke="#000000" cx="393.6279" cy="-256" rx="33.4805" ry="18"/>
<text text-anchor="middle" x="393.6279" y="-253" font-family="Courier,monospace" font-size="10.00" fill="#000000">evmcore</text>
</g>
<!-- evm&#45;&gt;evmcore -->
<g id="edge34" class="edge">
<title>evm&#45;&gt;evmcore</title>
<path fill="none" stroke="#000000" d="M407.9313,-310.2022C405.8303,-302.2406 403.304,-292.6671 400.9629,-283.7957"/>
<polygon fill="#000000" stroke="#000000" points="404.2721,-282.6185 398.3364,-273.8425 397.5038,-284.4046 404.2721,-282.6185"/>
</g>
<!-- llvm -->
<g id="node35" class="node">
<title>llvm</title>
<ellipse fill="none" stroke="#000000" cx="557.6279" cy="-256" rx="27" ry="18"/>
<text text-anchor="middle" x="557.6279" y="-253" font-family="Courier,monospace" font-size="10.00" fill="#000000">llvm</text>
</g>
<!-- evmjit&#45;&gt;llvm -->
<g id="edge35" class="edge">
<title>evmjit&#45;&gt;llvm</title>
<path fill="none" stroke="#000000" d="M559.1232,-309.8314C558.9093,-302.131 558.655,-292.9743 558.4173,-284.4166"/>
<polygon fill="#000000" stroke="#000000" points="561.9158,-284.3122 558.1394,-274.4133 554.9185,-284.5066 561.9158,-284.3122"/>
</g>
<!-- ethash -->
<g id="node37" class="node">
<title>ethash</title>
<ellipse fill="#00bfff" stroke="#000000" cx="638.6279" cy="-328" rx="30.0512" ry="18"/>
<text text-anchor="middle" x="638.6279" y="-325" font-family="Courier,monospace" font-size="10.00" fill="#000000">ethash</text>
</g>
<!-- Cryptopp -->
<g id="node38" class="node">
<title>Cryptopp</title>
<ellipse fill="none" stroke="#000000" cx="639.6279" cy="-256" rx="36.9099" ry="18"/>
<text text-anchor="middle" x="639.6279" y="-253" font-family="Courier,monospace" font-size="10.00" fill="#000000">Cryptopp</text>
</g>
<!-- ethash&#45;&gt;Cryptopp -->
<g id="edge38" class="edge">
<title>ethash&#45;&gt;Cryptopp</title>
<path fill="none" stroke="#000000" d="M638.8803,-309.8314C638.9872,-302.131 639.1144,-292.9743 639.2332,-284.4166"/>
<polygon fill="#000000" stroke="#000000" points="642.7329,-284.4609 639.3722,-274.4133 635.7335,-284.3637 642.7329,-284.4609"/>
</g>
<!-- ethash&#45;cl&#45;&gt;ethash -->
<g id="edge39" class="edge">
<title>ethash&#45;cl&#45;&gt;ethash</title>
<path fill="none" stroke="#000000" d="M624.4224,-381.8314C626.5084,-373.9266 628.9993,-364.4872 631.3086,-355.7365"/>
<polygon fill="#000000" stroke="#000000" points="634.7333,-356.4755 633.9008,-345.9134 627.965,-354.6894 634.7333,-356.4755"/>
</g>
<!-- ethkey -->
<g id="node41" class="node">
<title>ethkey</title>
<polygon fill="#7fff00" stroke="#000000" stroke-width="2" points="511.6279,-346 457.6279,-346 457.6279,-310 511.6279,-310 511.6279,-346"/>
<text text-anchor="middle" x="484.6279" y="-325" font-family="Courier,monospace" font-size="10.00" fill="#000000">ethkey</text>
</g>
<!-- ethkey&#45;&gt;ethcore -->
<g id="edge43" class="edge">
<title>ethkey&#45;&gt;ethcore</title>
<path fill="none" stroke="#000000" d="M483.1139,-309.8314C482.4722,-302.131 481.7091,-292.9743 480.996,-284.4166"/>
<polygon fill="#000000" stroke="#000000" points="484.4808,-284.088 480.1624,-274.4133 477.505,-284.6694 484.4808,-284.088"/>
</g>
<!-- ethminer -->
<g id="node42" class="node">
<title>ethminer</title>
<polygon fill="#7fff00" stroke="#000000" stroke-width="2" points="538.6357,-562 474.6201,-562 474.6201,-526 538.6357,-526 538.6357,-562"/>
<text text-anchor="middle" x="506.6279" y="-541" font-family="Courier,monospace" font-size="10.00" fill="#000000">ethminer</text>
</g>
<!-- ethminer&#45;&gt;ethashseal -->
<g id="edge44" class="edge">
<title>ethminer&#45;&gt;ethashseal</title>
<path fill="none" stroke="#000000" d="M508.3943,-525.8314C509.143,-518.131 510.0332,-508.9743 510.8652,-500.4166"/>
<polygon fill="#000000" stroke="#000000" points="514.3536,-500.7051 511.8377,-490.4133 507.3864,-500.0276 514.3536,-500.7051"/>
</g>
<!-- ethvm -->
<g id="node43" class="node">
<title>ethvm</title>
<polygon fill="#7fff00" stroke="#000000" stroke-width="2" points="610.6279,-562 556.6279,-562 556.6279,-526 610.6279,-526 610.6279,-562"/>
<text text-anchor="middle" x="583.6279" y="-541" font-family="Courier,monospace" font-size="10.00" fill="#000000">ethvm</text>
</g>
<!-- ethvm&#45;&gt;ethashseal -->
<g id="edge45" class="edge">
<title>ethvm&#45;&gt;ethashseal</title>
<path fill="none" stroke="#000000" d="M565.964,-525.8314C557.2713,-516.8903 546.6699,-505.986 537.2875,-496.3355"/>
<polygon fill="#000000" stroke="#000000" points="539.5643,-493.6565 530.084,-488.9263 534.5454,-498.5361 539.5643,-493.6565"/>
</g>
<!-- json&#45;rpc&#45;cpp -->
<g id="node44" class="node">
<title>json&#45;rpc&#45;cpp</title>
<ellipse fill="none" stroke="#000000" cx="920.6279" cy="-688" rx="50.6279" ry="18"/>
<text text-anchor="middle" x="920.6279" y="-685" font-family="Courier,monospace" font-size="10.00" fill="#000000">json&#45;rpc&#45;cpp</text>
</g>
<!-- json&#45;rpc&#45;cpp&#45;&gt;curl -->
<g id="edge46" class="edge">
<title>json&#45;rpc&#45;cpp&#45;&gt;curl</title>
<path fill="none" stroke="#000000" d="M882.9128,-675.9159C852.0705,-665.7006 807.5231,-650.1804 769.6279,-634 767.8446,-633.2386 766.0249,-632.4307 764.1976,-631.5954"/>
<polygon fill="#000000" stroke="#000000" points="765.6654,-628.4178 755.132,-627.2786 762.6559,-634.7379 765.6654,-628.4178"/>
</g>
<!-- argtable2 -->
<g id="node45" class="node">
<title>argtable2</title>
<ellipse fill="none" stroke="#000000" cx="818.6279" cy="-616" rx="40.3393" ry="18"/>
<text text-anchor="middle" x="818.6279" y="-613" font-family="Courier,monospace" font-size="10.00" fill="#000000">argtable2</text>
</g>
<!-- json&#45;rpc&#45;cpp&#45;&gt;argtable2 -->
<g id="edge47" class="edge">
<title>json&#45;rpc&#45;cpp&#45;&gt;argtable2</title>
<path fill="none" stroke="#000000" stroke-dasharray="1,5" d="M897.7371,-671.8418C883.266,-661.6269 864.4038,-648.3124 848.7274,-637.2467"/>
<polygon fill="#000000" stroke="#000000" points="850.5822,-634.2719 840.3941,-631.3644 846.5454,-639.9907 850.5822,-634.2719"/>
</g>
<!-- microhttpd -->
<g id="node46" class="node">
<title>microhttpd</title>
<ellipse fill="none" stroke="#000000" cx="920.6279" cy="-616" rx="43.7688" ry="18"/>
<text text-anchor="middle" x="920.6279" y="-613" font-family="Courier,monospace" font-size="10.00" fill="#000000">microhttpd</text>
</g>
<!-- json&#45;rpc&#45;cpp&#45;&gt;microhttpd -->
<g id="edge48" class="edge">
<title>json&#45;rpc&#45;cpp&#45;&gt;microhttpd</title>
<path fill="none" stroke="#000000" d="M920.6279,-669.8314C920.6279,-662.131 920.6279,-652.9743 920.6279,-644.4166"/>
<polygon fill="#000000" stroke="#000000" points="924.128,-644.4132 920.6279,-634.4133 917.128,-644.4133 924.128,-644.4132"/>
</g>
<!-- Jsoncpp -->
<g id="node47" class="node">
<title>Jsoncpp</title>
<ellipse fill="none" stroke="#000000" cx="1015.6279" cy="-616" rx="33.4805" ry="18"/>
<text text-anchor="middle" x="1015.6279" y="-613" font-family="Courier,monospace" font-size="10.00" fill="#000000">Jsoncpp</text>
</g>
<!-- json&#45;rpc&#45;cpp&#45;&gt;Jsoncpp -->
<g id="edge49" class="edge">
<title>json&#45;rpc&#45;cpp&#45;&gt;Jsoncpp</title>
<path fill="none" stroke="#000000" d="M942.1849,-671.6621C955.7306,-661.3958 973.3368,-648.0522 987.915,-637.0035"/>
<polygon fill="#000000" stroke="#000000" points="990.2394,-639.6335 996.095,-630.8039 986.0112,-634.0547 990.2394,-639.6335"/>
</g>
<!-- libedit -->
<g id="node48" class="node">
<title>libedit</title>
<ellipse fill="none" stroke="#000000" cx="1100.6279" cy="-616" rx="33.4805" ry="18"/>
<text text-anchor="middle" x="1100.6279" y="-613" font-family="Courier,monospace" font-size="10.00" fill="#000000">libedit</text>
</g>
<!-- json&#45;rpc&#45;cpp&#45;&gt;libedit -->
<g id="edge50" class="edge">
<title>json&#45;rpc&#45;cpp&#45;&gt;libedit</title>
<path fill="none" stroke="#000000" d="M955.0521,-674.6618C982.8064,-663.8525 1022.8109,-648.1472 1057.6279,-634 1059.9897,-633.0403 1062.4213,-632.0443 1064.8697,-631.0354"/>
<polygon fill="#000000" stroke="#000000" points="1066.3892,-634.1944 1074.2851,-627.1299 1063.7072,-627.7285 1066.3892,-634.1944"/>
</g>
<!-- rlp -->
<g id="node49" class="node">
<title>rlp</title>
<polygon fill="#7fff00" stroke="#000000" stroke-width="2" points="295.6279,-346 241.6279,-346 241.6279,-310 295.6279,-310 295.6279,-346"/>
<text text-anchor="middle" x="268.6279" y="-325" font-family="Courier,monospace" font-size="10.00" fill="#000000">rlp</text>
</g>
<!-- rlp&#45;&gt;devcrypto -->
<g id="edge51" class="edge">
<title>rlp&#45;&gt;devcrypto</title>
<path fill="none" stroke="#000000" d="M275.6935,-309.8314C278.801,-301.8406 282.5183,-292.2819 285.9524,-283.4514"/>
<polygon fill="#000000" stroke="#000000" points="289.2991,-284.502 289.6616,-273.9134 282.7751,-281.9649 289.2991,-284.502"/>
</g>
<!-- whisper&#45;&gt;boost::regex -->
<g id="edge54" class="edge">
<title>whisper&#45;&gt;boost::regex</title>
<path fill="none" stroke="#000000" d="M213.4504,-387.2936C192.6074,-376.3396 162.1698,-360.3432 138.1607,-347.7253"/>
<polygon fill="#000000" stroke="#000000" points="139.7875,-344.6263 129.3072,-343.0723 136.5309,-350.8227 139.7875,-344.6263"/>
</g>
<!-- whisper&#45;&gt;p2p -->
<g id="edge55" class="edge">
<title>whisper&#45;&gt;p2p</title>
<path fill="none" stroke="#000000" d="M227.703,-382.5708C222.8179,-373.9922 216.8297,-363.4762 211.4182,-353.9732"/>
<polygon fill="#000000" stroke="#000000" points="214.4514,-352.2266 206.4615,-345.2687 208.3685,-355.6905 214.4514,-352.2266"/>
</g>
<!-- test -->
<g id="node51" class="node">
<title>test</title>
<polygon fill="#7fff00" stroke="#000000" stroke-width="2" points="1043.6279,-706 989.6279,-706 989.6279,-670 1043.6279,-670 1043.6279,-706"/>
<text text-anchor="middle" x="1016.6279" y="-685" font-family="Courier,monospace" font-size="10.00" fill="#000000">test</text>
</g>
</g>
</svg>
